name Walk9.mot
datacolumns 19
datarows 10
range 2.30400000 2.31300000
endheader

                time	   L_ground_force_vx	   L_ground_force_vy	   L_ground_force_vz	   L_ground_force_px	   L_ground_force_py	   L_ground_force_pz	   R_ground_force_vx	   R_ground_force_vy	   R_ground_force_vz	   R_ground_force_px	   R_ground_force_py	   R_ground_force_pz	   L_ground_torque_x	   L_ground_torque_y	   L_ground_torque_z	   R_ground_torque_x	   R_ground_torque_y	   R_ground_torque_z	
          2.30400000	          0.00000000	          0.00000000	          0.00000000	          0.00000000	          0.00000000	          0.00000000	         25.44691952	        119.67775240	         10.95245595	          0.22170445	          0.00000000	          0.04534748	          0.00000000	          0.00000000	          0.00000000	          0.00000000	         -7.12662886	          0.00000000	
          2.30500000	          0.00000000	          0.00000000	          0.00000000	          0.00000000	          0.00000000	          0.00000000	         23.27145776	        109.78305979	         10.37580233	          0.22233305	          0.00000000	          0.04518151	          0.00000000	          0.00000000	          0.00000000	          0.00000000	         -6.62615518	          0.00000000	
          2.30600000	          0.00000000	          0.00000000	          0.00000000	          0.00000000	          0.00000000	          0.00000000	         21.21399087	        100.26046223	          9.73722998	          0.22343505	          0.00000000	          0.04537041	          0.00000000	          0.00000000	          0.00000000	          0.00000000	         -6.16798304	          0.00000000	
          2.30700000	          0.00000000	          0.00000000	          0.00000000	          0.00000000	          0.00000000	          0.00000000	         19.26825757	         91.12402110	          9.04939857	          0.22449317	          0.00000000	          0.04569659	          0.00000000	          0.00000000	          0.00000000	          0.00000000	         -5.74512186	          0.00000000	
          2.30800000	          0.00000000	          0.00000000	          0.00000000	          0.00000000	          0.00000000	          0.00000000	         17.44627558	         82.39876085	          8.35695245	          0.22501907	          0.00000000	          0.04583862	          0.00000000	          0.00000000	          0.00000000	          0.00000000	         -5.34841557	          0.00000000	
          2.30900000	          0.00000000	          0.00000000	          0.00000000	          0.00000000	          0.00000000	          0.00000000	         15.75022986	         74.15418314	          7.69255435	          0.22488609	          0.00000000	          0.04549219	          0.00000000	          0.00000000	          0.00000000	          0.00000000	         -4.96613885	          0.00000000	
          2.31000000	          0.00000000	          0.00000000	          0.00000000	          0.00000000	          0.00000000	          0.00000000	         14.15950963	         66.49271423	          7.05627090	          0.22437818	          0.00000000	          0.04454569	          0.00000000	          0.00000000	          0.00000000	          0.00000000	         -4.58879691	          0.00000000	
          2.31100000	          0.00000000	          0.00000000	          0.00000000	          0.00000000	          0.00000000	          0.00000000	         12.64553488	         59.53064892	          6.43676253	          0.22413333	          0.00000000	          0.04330525	          0.00000000	          0.00000000	          0.00000000	          0.00000000	         -4.21418170	          0.00000000	
          2.31200000	          0.00000000	          0.00000000	          0.00000000	          0.00000000	          0.00000000	          0.00000000	         11.18013622	         53.37350830	          5.81846562	          0.22502662	          0.00000000	          0.04237836	          0.00000000	          0.00000000	          0.00000000	          0.00000000	         -3.84166821	          0.00000000	
          2.31300000	          0.00000000	          0.00000000	          0.00000000	          0.00000000	          0.00000000	          0.00000000	          9.73539098	         48.07183132	          5.17796178	          0.22780938	          0.00000000	          0.04219803	          0.00000000	          0.00000000	          0.00000000	          0.00000000	         -3.46804345	          0.00000000	
